<svg xmlns="http://www.w3.org/2000/svg" version="1.1" xmlns:xlink="http://www.w3.org/1999/xlink" xmlns:svgjs="http://svgjs.dev/svgjs" width="134.15971" height="101.81889"><svg id="SvgjsSvg1238" version="1.1" inkscape:version="1.3.2 (091e20e, 2023-11-25)" width="134.15971" height="101.81889" viewBox="0 0 125.77474 95.455202" sodipodi:docname="logo.svg" inkscape:export-filename="/home/mvera/Imágenes/Logo LS/logo.png" inkscape:export-xdpi="105.68422" inkscape:export-ydpi="105.68422" xmlns:inkscape="http://www.inkscape.org/namespaces/inkscape" xmlns:sodipodi="http://sodipodi.sourceforge.net/DTD/sodipodi-0.dtd" xmlns="http://www.w3.org/2000/svg" xmlns:svg="http://www.w3.org/2000/svg" xmlns:rdf="http://www.w3.org/1999/02/22-rdf-syntax-ns#" xmlns:cc="http://creativecommons.org/ns#" xmlns:dc="http://purl.org/dc/elements/1.1/">
  <metadata id="SvgjsMetadata1237">
    <rdf:rdf>
      <cc:work rdf:about="">
        <dc:format>image/svg+xml</dc:format>
        <dc:type rdf:resource="http://purl.org/dc/dcmitype/StillImage"></dc:type>
        <dc:title></dc:title>
      </cc:work>
    </rdf:rdf>
  </metadata>
  <defs id="SvgjsDefs1236"></defs>
  <sodipodi:namedview pagecolor="#ffffff" bordercolor="#666666" borderopacity="1" objecttolerance="10" gridtolerance="10" guidetolerance="10" inkscape:pageopacity="0" inkscape:pageshadow="2" inkscape:window-width="1920" inkscape:window-height="999" id="SvgjsSodipodi:namedview1235" showgrid="false" inkscape:zoom="4.9170839" inkscape:cx="34.573338" inkscape:cy="34.980083" inkscape:window-x="0" inkscape:window-y="41" inkscape:window-maximized="1" inkscape:current-layer="g4595" inkscape:showpageshadow="2" inkscape:pagecheckerboard="0" inkscape:deskcolor="#d1d1d1"></sodipodi:namedview>
  <g id="SvgjsG1234" inkscape:export-xdpi="105" inkscape:export-ydpi="105" transform="translate(-2.2835842,-2.3246753)">
    <g id="SvgjsG1233" transform="translate(-4.7401184,-8.2952072)" inkscape:export-xdpi="105" inkscape:export-ydpi="105">
      <path style="fill:#0073ff;fill-opacity:1;fill-rule:evenodd;stroke:#0073ff;stroke-width:0.84155858px;stroke-linecap:butt;stroke-linejoin:miter;stroke-opacity:1" d="m 34.365424,33.586417 -6.327779,49.177434 64.760873,7.957803 c -1.046523,5.284645 1.143948,14.182466 -22.147229,14.932056 L 22.401966,101.36187 C 11.942236,99.937598 7.0261249,91.20544 7.472359,80.081446 L 12.020452,46.819618 C 14.34382,38.003593 24.891902,32.004492 34.365424,33.586417 Z" id="SvgjsPath1232" inkscape:connector-curvature="0" sodipodi:nodetypes="cccccccc"></path>
      <path style="fill:#ff3b00;fill-opacity:1;fill-rule:evenodd;stroke:#ff3b00;stroke-width:0.84155858px;stroke-linecap:butt;stroke-linejoin:miter;stroke-opacity:1" d="m 58.53601,19.232372 53.14697,10.86692 6.72327,42.373019 c 10.30949,-0.289386 15.78088,-6.867174 13.43804,-14.097197 L 126.9092,28.489848 c -2.58457,-5.562862 -6.68365,-8.45439 -11.86459,-9.65666 L 77.275685,11.322453 C 65.364424,9.8288291 61.241563,14.522986 58.53601,19.232372 Z" id="SvgjsPath1231" inkscape:connector-curvature="0" sodipodi:nodetypes="cccccccc"></path>
      <path sodipodi:nodetypes="ccccccccccccccccccccc" inkscape:connector-curvature="0" id="SvgjsPath1230" d="m 112.67152,73.682571 c 1.54324,10.047374 -2.24144,15.044427 -19.4095,12.821068 L 42.555531,79.0739 c -5.795206,-0.54532 -7.77109,-2.796574 -7.505375,-9.278206 l 1.648451,-11.564355 52.495236,8.448473 c 3.988768,0.473724 5.835663,0.912658 5.59873,-2.852272 -0.3679,-2.112214 0.545304,-4.121956 -4.651995,-4.952741 L 43.895565,50.972026 c -5.046234,-1.004512 -5.996318,-3.764302 -5.08876,-8.902711 l 2.867413,-11.749348 c 2.482883,-9.237737 4.785419,-9.291862 13.016969,-7.987429 l 44.658975,8.628642 c 6.172038,1.527276 7.634398,4.344544 8.126708,6.152199 l 1.357,7.939337 -48.06739,-8.810017 c -2.292161,-0.41102 -3.410888,-0.340936 -3.91656,2.994184 -0.958726,4.320552 2.62485,4.525107 4.340952,4.865224 l 40.272608,7.121454 c 8.24273,1.725494 8.79394,3.862062 9.72841,8.445435 z" style="fill:#cccccc;fill-opacity:1;fill-rule:evenodd;stroke:#9b9b9b;stroke-width:0.8358px;stroke-linecap:butt;stroke-linejoin:miter;stroke-opacity:1"></path>
    </g>
  </g>
</svg><style>@media (prefers-color-scheme: light) { :root { filter: none; } }
@media (prefers-color-scheme: dark) { :root { filter: none; } }
</style></svg>